<svg width="224" height="180" viewBox="0 0 224 180" fill="none" xmlns="http://www.w3.org/2000/svg">
<g clip-path="url(#clip0_2_50438)">
<path d="M155.98 175.2L151.833 175.2L149.861 159.219H155.98L155.98 175.2Z" fill="#FFB6B6"/>
<path d="M155.869 173.847L151.442 172.047L151.315 171.995L148.871 173.847C147.491 173.847 146.168 174.395 145.192 175.37C144.216 176.345 143.668 177.667 143.667 179.047V179.215H157.036V173.847H155.869Z" fill="#2F2E41"/>
<path d="M193.444 169.813L189.733 171.661L180.833 158.238L186.31 155.51L193.444 169.813Z" fill="#FFB6B6"/>
<path d="M193.787 168.13L192.838 168.601L192.741 168.65L187.982 169.017L187.839 169.027L186.477 171.771C185.866 172.076 185.32 172.498 184.872 173.013C184.423 173.528 184.081 174.127 183.864 174.775C183.648 175.422 183.561 176.106 183.609 176.787C183.657 177.468 183.838 178.134 184.144 178.744L184.218 178.894L196.183 172.937L193.787 168.13Z" fill="#2F2E41"/>
<path d="M153.168 89.3039L176.031 90.1035L176.19 89.8721C176.19 89.8721 178.14 94.4192 178.14 98.3167C178.14 99.6125 177.238 108.088 177.697 109.691C177.754 109.891 177.362 110.38 177.49 111.308C177.574 111.911 178.034 111.447 178.14 112.283C178.216 112.882 177.405 113.213 177.49 113.907C177.583 114.664 178.698 117.118 178.799 117.961C179.868 126.934 181.291 139.933 181.291 139.933C181.291 139.933 187.007 155.231 188.216 155.48C190.246 155.897 191.616 159.585 190.491 160.352C189.956 160.717 183.034 163.174 183.034 163.174C182.653 163.242 181.464 162.646 182.222 161.236C182.361 160.976 181.529 161.637 181.391 161.326C181.243 160.995 181.532 159.68 181.364 159.313C179.851 156.019 177.528 151.454 175.327 149.109C172.075 145.646 170.016 141.234 169.449 136.519L164.401 108.546L162.67 116.39L161.239 117.804L161.631 121.1L161.564 124.3L157.988 137.616C157.988 137.616 157.452 162.485 158.313 163.275C158.78 163.702 160.759 168.971 157.013 169.446L150.208 168.921C150.208 168.921 149.291 166.99 149.749 166.303C150.208 165.616 150.18 165.803 149.621 164.679C149.061 163.554 149.291 161.648 149.291 161.648C148.399 152.692 148.047 143.691 148.237 134.693C148.578 119.914 150.646 102.936 150.646 102.59C150.663 102.237 150.598 101.884 150.455 101.56V100.627L151.334 97.3215L153.168 89.3039Z" fill="#2F2E41"/>
<path d="M185.342 92.0975C190.328 92.0975 194.371 88.0579 194.371 83.0748C194.371 78.0917 190.328 74.0522 185.342 74.0522C180.355 74.0522 176.312 78.0917 176.312 83.0748C176.312 88.0579 180.355 92.0975 185.342 92.0975Z" fill="#FBBF23"/>
<path d="M184.11 87.7707C183.954 87.7707 183.8 87.7344 183.661 87.6647C183.521 87.595 183.4 87.4938 183.306 87.3692L180.843 84.0871C180.764 83.9816 180.706 83.8616 180.674 83.734C180.641 83.6063 180.634 83.4734 180.652 83.343C180.671 83.2125 180.715 83.087 180.782 82.9736C180.849 82.8602 180.938 82.7611 181.044 82.682C181.149 82.6029 181.269 82.5454 181.397 82.5127C181.525 82.48 181.658 82.4728 181.789 82.4914C181.919 82.51 182.045 82.5542 182.158 82.6214C182.272 82.6885 182.371 82.7773 182.45 82.8828L184.062 85.0298L188.201 78.8257C188.274 78.7159 188.368 78.6216 188.478 78.5481C188.587 78.4747 188.71 78.4235 188.84 78.3976C188.969 78.3717 189.102 78.3715 189.232 78.3971C189.361 78.4226 189.484 78.4734 189.594 78.5466C189.704 78.6197 189.798 78.7138 189.872 78.8234C189.945 78.933 189.996 79.056 190.022 79.1853C190.048 79.3146 190.048 79.4478 190.022 79.5771C189.997 79.7065 189.946 79.8295 189.872 79.9392L184.946 87.3237C184.856 87.4573 184.737 87.5675 184.596 87.6453C184.455 87.723 184.298 87.7659 184.138 87.7704C184.128 87.7705 184.119 87.7707 184.11 87.7707Z" fill="white"/>
<path d="M189.806 92.6134C189.894 92.2444 189.9 91.8607 189.824 91.4892C189.747 91.1177 189.59 90.7674 189.364 90.4631C189.137 90.1588 188.847 89.9079 188.512 89.7279C188.178 89.548 187.809 89.4435 187.43 89.4217L182.803 73.67L179.673 77.2995L184.653 92.0479C184.658 92.6864 184.898 93.3008 185.327 93.7744C185.755 94.2481 186.343 94.5483 186.978 94.618C187.614 94.6877 188.252 94.5221 188.774 94.1527C189.295 93.7832 189.662 93.2355 189.806 92.6134Z" fill="#FFB8B8"/>
<path d="M186.542 84.9288L185.941 82.7267L186.63 81.4113L186.578 81.2587L186.37 80.6676L185.291 79.8036L185.678 78.7026L184.313 74.8278L183.978 74.1555L176.141 58.4324L174.263 54.6616L173.827 53.9796L172.472 51.8554L170.619 48.9551C170.324 48.4915 169.941 48.0911 169.49 47.7772C169.039 47.4633 168.53 47.2421 167.993 47.1265C167.819 47.0884 167.643 47.0612 167.466 47.0453L167.339 47.0356C167.023 47.0181 166.706 47.0366 166.394 47.0908H166.387C165.837 47.1861 165.312 47.394 164.846 47.7014C164.48 47.9386 164.153 48.2324 163.878 48.5718C163.245 49.3561 162.916 50.342 162.951 51.3488L163.01 52.9337L163.068 54.3758L165.818 59.3451L165.997 59.6699L166 59.6796L174.461 74.9773L177.012 79.5893L177.399 80.2908L179.115 81.4276L178.657 82.5708L178.79 84.3507L180.25 85.4517L182.366 87.5986L182.45 87.774L183.1 87.4459L183.162 87.4135L183.308 87.3712L185.32 86.7639L186.542 86.3969L186.581 86.3839L186.916 86.2994L186.542 84.9288Z" fill="#E6E6E6"/>
<path d="M221.324 156.435C220.711 155.656 219.879 155.079 218.935 154.777C217.99 154.475 216.977 154.463 216.026 154.742L215.818 154.804L213.952 162.083C213.673 160.998 213.075 158.549 212.698 156.152L212.665 155.954L212.48 156.035C210.529 156.897 208.696 158.001 207.023 159.322C204.058 161.698 201.647 164.691 199.957 168.092C198.267 171.493 197.338 175.221 197.236 179.017L197.233 179.157L197.229 179.245L197.476 179.157L202.778 177.263C205.125 177.47 207.488 177.15 209.696 176.328C211.904 175.505 213.9 174.2 215.538 172.508C217.68 170.251 219.15 167.348 220.57 164.538C220.986 163.72 221.412 162.875 221.847 162.063C222.333 161.18 222.543 160.172 222.45 159.169C222.356 158.165 221.964 157.213 221.324 156.435Z" fill="#F2F2F2"/>
<path d="M85.2836 35.61H84.6335V10.5872H131.652V11.2368H85.2836V35.61Z" fill="#3F3D56"/>
<path d="M138.862 18.0453C143.849 18.0453 147.891 14.0058 147.891 9.02267C147.891 4.03959 143.849 0 138.862 0C133.875 0 129.833 4.03959 129.833 9.02267C129.833 14.0058 133.875 18.0453 138.862 18.0453Z" fill="#FBBF23"/>
<path d="M137.63 13.7185C137.474 13.7185 137.32 13.6823 137.181 13.6126C137.042 13.5429 136.92 13.4417 136.827 13.317L134.363 10.0349C134.284 9.92948 134.227 9.8095 134.194 9.68182C134.161 9.55415 134.154 9.42128 134.173 9.29081C134.191 9.16033 134.235 9.03481 134.303 8.9214C134.37 8.808 134.459 8.70893 134.564 8.62985C134.67 8.55078 134.79 8.49324 134.918 8.46054C135.045 8.42783 135.178 8.42059 135.309 8.43924C135.44 8.45788 135.565 8.50204 135.679 8.5692C135.792 8.63635 135.891 8.72518 135.97 8.83062L137.582 10.9777L141.721 4.77355C141.794 4.66376 141.888 4.56944 141.998 4.49598C142.108 4.42252 142.231 4.37137 142.36 4.34545C142.489 4.31953 142.623 4.31934 142.752 4.3449C142.882 4.37047 143.005 4.42128 143.115 4.49443C143.224 4.56759 143.319 4.66165 143.392 4.77124C143.466 4.88084 143.517 5.00381 143.542 5.13314C143.568 5.26247 143.568 5.39562 143.543 5.52498C143.517 5.65433 143.466 5.77736 143.393 5.88702L138.466 13.2716C138.377 13.4051 138.257 13.5154 138.116 13.5931C137.976 13.6708 137.819 13.7137 137.658 13.7182C137.649 13.7184 137.639 13.7185 137.63 13.7185Z" fill="white"/>
<path d="M53.4304 96.3604H52.7804V121.383H99.7986V120.734H53.4304V96.3604Z" fill="#3F3D56"/>
<path d="M107.009 130.423C111.996 130.423 116.038 126.383 116.038 121.4C116.038 116.417 111.996 112.377 107.009 112.377C102.022 112.377 97.9794 116.417 97.9794 121.4C97.9794 126.383 102.022 130.423 107.009 130.423Z" fill="#FBBF23"/>
<path d="M105.777 126.096C105.621 126.096 105.467 126.06 105.328 125.99C105.188 125.92 105.067 125.819 104.974 125.694L102.51 122.412C102.431 122.307 102.373 122.187 102.341 122.059C102.308 121.932 102.301 121.799 102.319 121.668C102.338 121.538 102.382 121.412 102.449 121.299C102.517 121.185 102.606 121.086 102.711 121.007C102.817 120.928 102.937 120.871 103.064 120.838C103.192 120.805 103.325 120.798 103.456 120.817C103.586 120.835 103.712 120.879 103.825 120.947C103.939 121.014 104.038 121.103 104.117 121.208L105.729 123.355L109.868 117.151C109.941 117.041 110.035 116.947 110.145 116.873C110.254 116.8 110.377 116.749 110.507 116.723C110.636 116.697 110.769 116.697 110.899 116.722C111.028 116.748 111.152 116.799 111.261 116.872C111.371 116.945 111.466 117.039 111.539 117.149C111.612 117.258 111.663 117.381 111.689 117.511C111.715 117.64 111.715 117.773 111.689 117.902C111.664 118.032 111.613 118.155 111.539 118.264L106.613 125.649C106.524 125.783 106.404 125.893 106.263 125.97C106.123 126.048 105.965 126.091 105.805 126.096C105.796 126.096 105.786 126.096 105.777 126.096Z" fill="white"/>
<path d="M178.465 97.2806C178.475 97.9645 178.365 98.6449 178.14 99.291L178.091 99.2813C172.319 100.279 167.169 100.442 164.787 96.9014C161.679 92.9468 157.404 92.9916 152.635 94.7277L152.069 94.1171L151.107 93.0811L151.991 92.0807L151.107 90.1515L151.845 87.7707L152.788 87.5986L152.534 85.5492L152.138 84.3507L153.301 83.0743L154.289 79.8881L153.578 73.2201C152.603 64.0803 154.491 54.8635 158.98 46.8407L161.681 44.4177L162.802 43.4109L164.307 40.6047L165.896 40.7898L170.2 41.2868L170.346 41.6375L171.402 44.1839L176.967 50.1568L176.717 52.6772L176.606 53.7879L176.525 54.5869L176.141 58.4324L174.578 74.1425L174.461 74.9772L173.203 84.0097C175.247 85.9844 177.055 89.7877 177.922 93.2629C178.02 93.6494 177.744 94.0424 177.815 94.4192C177.916 94.9518 178.355 95.4585 178.404 95.9554C178.449 96.3957 178.47 96.8381 178.465 97.2806Z" fill="#E6E6E6"/>
<path d="M167.444 39.5989C171.572 39.5989 174.918 36.2549 174.918 32.13C174.918 28.005 171.572 24.661 167.444 24.661C163.316 24.661 159.969 28.005 159.969 32.13C159.969 36.2549 163.316 39.5989 167.444 39.5989Z" fill="#FFB6B6"/>
<path d="M176.454 30.0923C176.012 28.7142 174.798 27.5482 173.358 27.3958C173.467 26.4805 173.323 25.5528 172.941 24.7138C172.559 23.8747 171.954 23.1564 171.192 22.6372C170.43 22.1179 169.54 21.8175 168.618 21.7688C167.697 21.72 166.78 21.9247 165.968 22.3606C165.795 22.1533 165.572 21.994 165.319 21.8982C165.067 21.8023 164.794 21.7732 164.527 21.8137C163.994 21.9016 163.491 22.1218 163.064 22.4542C162.005 23.2281 161.176 24.2745 160.665 25.482C160.154 26.6894 159.98 28.0127 160.162 29.311C160.159 28.6524 160.451 29.9266 161.288 30.0392C161.986 30.1794 162.65 30.4532 163.244 30.8453C163.838 31.2374 164.5 31.5147 165.196 31.6628C165.898 31.7655 166.079 34.5795 165.578 36.3918C165.482 36.7353 165.434 37.1961 165.751 37.3598C166.141 37.5614 166.535 37.0546 166.972 37.0051C167.168 37.0021 167.357 37.0751 167.5 37.2088C167.643 37.3425 167.729 37.5265 167.738 37.7219C167.739 37.918 167.692 38.1113 167.603 38.2859C167.513 38.4604 167.384 38.611 167.224 38.7252C166.903 38.9504 166.548 39.1223 166.172 39.2343L166.298 39.4131C166.409 39.6175 166.587 39.7771 166.802 39.8648C167.017 39.9524 167.256 39.9625 167.478 39.8934C167.977 40.4958 173.128 38.823 173.379 37.7234C174.458 36.7523 175.354 35.5958 176.025 34.309C176.695 33.0078 176.848 31.5017 176.454 30.0923Z" fill="#2F2E41"/>
<path d="M182.499 52.8396C182.395 53.71 181.579 54.3596 180.721 54.5415C180.285 54.6253 179.837 54.633 179.398 54.5642C178.969 54.5006 178.546 54.4061 178.13 54.2816C177.617 54.1355 177.109 53.9709 176.606 53.7879C175.17 53.2756 173.786 52.6285 172.472 51.8554C171.478 51.2758 170.527 50.6267 169.624 49.9132C169.156 49.5429 168.702 49.1564 168.263 48.7537L168.812 49.0135C168.321 48.3542 167.83 47.6949 167.339 47.0356C166.865 46.399 166.391 45.7624 165.919 45.1258C165.89 45.0868 165.867 45.0608 165.857 45.0478V45.0446C165.64 44.7555 165.425 44.4665 165.21 44.1774C164.564 43.3102 163.927 42.037 164.671 41.2543C164.83 41.1019 165.022 40.9892 165.233 40.9254C165.444 40.8616 165.667 40.8485 165.883 40.8873C166.117 40.9176 166.342 40.9902 166.55 41.1016C167.118 41.4696 167.601 41.9559 167.963 42.5275C168.471 41.7902 169.455 41.5174 170.346 41.6375C170.395 41.6408 170.44 41.6473 170.486 41.6538C171.412 41.8129 171.812 41.3128 172.615 41.8032C172.988 42.0305 173.216 43.1998 173.59 43.4271C173.801 43.5571 174.584 43.7519 174.799 43.8851C175.221 44.1449 175.114 45.1161 175.54 45.3759C175.855 45.5675 176.7 45.0511 177.016 45.2427C177.347 45.4473 177.809 46.7985 178.14 46.9998C178.8 47.4058 179.33 46.6653 179.99 47.068C180.838 47.591 181.742 48.1723 182.099 49.1012C182.414 49.9197 182.008 51.0402 181.225 51.2741C181.599 51.3187 181.941 51.507 182.179 51.7992C182.417 52.0913 182.531 52.4644 182.499 52.8396Z" fill="#E6E6E6"/>
<path opacity="0.2" d="M176.606 53.7879L176.525 54.5869C175.604 54.4983 174.697 54.2942 173.827 53.9796C172.682 53.5953 171.688 52.8571 170.99 51.8717C170.547 51.2091 170.086 50.5498 169.624 49.9132C168.857 48.8479 168.097 47.854 167.466 47.0453C166.696 46.0677 166.117 45.3596 165.919 45.1258C165.89 45.0868 165.867 45.0608 165.857 45.0478L165.848 45.0381L165.857 45.0446C169.719 49.9289 173.367 52.7455 176.717 52.6772C176.717 52.6772 177.11 53.9698 176.606 53.7879Z" fill="black"/>
<path d="M141.264 14.674C141.168 15.0412 141.155 15.4248 141.224 15.7977C141.294 16.1706 141.444 16.5239 141.664 16.8325C141.885 17.1411 142.171 17.3976 142.501 17.584C142.832 17.7704 143.199 17.882 143.578 17.9111L147.899 33.7493L151.098 30.181L146.405 15.3391C146.412 14.7006 146.184 14.0817 145.765 13.5998C145.345 13.1179 144.764 12.8065 144.13 12.7245C143.496 12.6425 142.854 12.7957 142.326 13.155C141.798 13.5143 141.42 14.0548 141.264 14.674Z" fill="#FFB8B8"/>
<path d="M166.631 55.1748L166.602 53.7327L163.878 48.5718L163.777 48.3834L163.771 48.3737L161.681 44.4178L151.596 25.3117L150.512 24.9141L150.567 23.3621L150.512 21.6662L149.211 20.7945L148.657 19.7435L147.87 19.9676H147.867L147.844 19.9741L144.405 20.9387H144.402L143.687 21.3414L143.037 23.2902L142.894 24.2127L143.037 25.8885L144.662 26.2133L144.124 27.9316L145.757 32.8747C147.802 41.5141 150.594 48.9713 155.414 53.2293L155.811 53.8789L158.947 59.0073C159.375 59.7089 160.001 60.268 160.747 60.6142C161.493 60.9605 162.324 61.0783 163.137 60.9528H163.14C163.692 60.8672 164.22 60.6705 164.694 60.3747C165.13 60.1056 165.512 59.7562 165.818 59.3451C166.378 58.6019 166.675 57.6933 166.66 56.763L166.631 55.1748Z" fill="#E6E6E6"/>
<path d="M223.613 179.9L135.285 180C135.183 180 135.084 179.959 135.012 179.887C134.939 179.814 134.898 179.716 134.898 179.613C134.898 179.511 134.939 179.412 135.012 179.34C135.084 179.267 135.183 179.227 135.285 179.227L223.613 179.127C223.716 179.127 223.814 179.167 223.887 179.24C223.959 179.313 224 179.411 224 179.513C224 179.616 223.959 179.714 223.887 179.787C223.814 179.859 223.716 179.9 223.613 179.9Z" fill="#CACACA"/>
<path d="M27.1819 49.923C27.1765 45.0407 29.0432 40.342 32.3982 36.7927L20.8844 20.9575C20.4105 20.3051 19.8014 19.7624 19.0987 19.3664C18.396 18.9704 17.6161 18.7304 16.8122 18.6627C16.0083 18.595 15.1992 18.7012 14.44 18.9741C13.6809 19.2469 12.9895 19.6801 12.413 20.244C8.46885 24.0859 5.33762 28.6807 3.20526 33.7554C1.07291 38.8302 -0.0170978 44.2814 -3.01086e-07 49.7853C3.18133e-05 51.8637 0.155099 53.9393 0.463906 55.9947C0.585052 56.8073 0.882132 57.5837 1.33443 58.2698C1.78674 58.9559 2.38337 59.5352 3.08273 59.9672C3.7742 60.3948 4.5507 60.6666 5.35808 60.7635C6.16547 60.8605 6.98429 60.7802 7.75745 60.5284L27.6382 54.0736C27.3357 52.7107 27.1827 51.3189 27.1819 49.923Z" fill="#F2F2F2"/>
<path d="M28.2392 56.1975L7.5705 62.9082C6.80557 63.1553 6.10273 63.5638 5.5096 64.106C4.91647 64.6483 4.44692 65.3116 4.13277 66.051C3.81861 66.7904 3.66718 67.5887 3.68876 68.3917C3.71033 69.1947 3.90439 69.9837 4.2578 70.7052C7.2012 76.6723 11.5401 81.8428 16.9072 85.7791C22.2743 89.7153 28.5115 92.3014 35.0908 93.3183C35.8921 93.4413 36.7105 93.3897 37.49 93.167C38.2694 92.9443 38.9914 92.5557 39.6065 92.028C40.2207 91.5017 40.7137 90.8487 41.0516 90.1141C41.3895 89.3794 41.5642 88.5803 41.5638 87.7718V68.4816C38.5027 67.688 35.6849 66.1516 33.3605 64.0087C31.0361 61.8658 29.277 59.1827 28.2392 56.1975Z" fill="#E6E6E6"/>
<path d="M90.3956 68.2501C90.0466 67.4221 89.5233 66.6789 88.8612 66.0711C88.1991 65.4633 87.4137 65.005 86.5586 64.7275L64.0166 57.4087C62.7007 60.501 60.5948 63.1936 57.9098 65.2166C55.2248 67.2397 52.0549 68.5224 48.7177 68.936V92.4051C48.7182 93.306 48.9135 94.1961 49.2904 95.0145C49.6672 95.8329 50.2166 96.5602 50.901 97.1466C51.5854 97.7331 52.3885 98.1647 53.2554 98.4121C54.1223 98.6594 55.0324 98.7166 55.9235 98.5796C63.2475 97.4475 70.1906 94.5688 76.1652 90.187C82.1398 85.8053 86.9698 80.0495 90.2465 73.4071C90.6404 72.6086 90.8576 71.7347 90.8834 70.8448C90.9091 69.955 90.7428 69.07 90.3956 68.2501Z" fill="#3F3D56"/>
<path d="M84.7952 14.4185C84.1534 13.7907 83.3838 13.3085 82.5387 13.0048C81.6936 12.701 80.7929 12.5827 79.898 12.6581C79.0031 12.7335 78.1349 13.0007 77.3527 13.4415C76.5704 13.8824 75.8924 14.4865 75.3648 15.2127L59.9534 36.4089C61.7263 38.1849 63.1319 40.2924 64.0897 42.6111C65.0475 44.9299 65.5389 47.4144 65.5358 49.9229C65.5358 50.3897 65.5132 50.8507 65.4804 51.309L89.9778 59.2629C90.844 59.5423 91.7607 59.6296 92.6641 59.5188C93.5676 59.408 94.4359 59.1017 95.2088 58.6212C95.9817 58.1408 96.6404 57.4978 97.1392 56.737C97.638 55.9762 97.9647 55.1158 98.0968 54.2159C98.4406 51.9278 98.6132 49.6172 98.6132 47.3034C98.6322 41.1765 97.4188 35.1083 95.045 29.4592C92.6713 23.8101 89.1857 18.6953 84.7952 14.4185Z" fill="#FBBF23"/>
<path d="M46.3588 30.7603C49.6582 30.7566 52.9021 31.6078 55.774 33.2308L65.1804 20.2936C65.6599 19.6348 65.9906 18.8798 66.1497 18.0808C66.3089 17.2818 66.2926 16.4578 66.102 15.6657C65.9175 14.8887 65.5665 14.1609 65.0732 13.5327C64.5799 12.9044 63.956 12.3906 63.2447 12.0267C57.4372 9.07536 51.0156 7.53246 44.5003 7.52298C37.9849 7.5135 31.5589 9.03771 25.7428 11.9721C25.0093 12.342 24.3651 12.8667 23.8547 13.51C23.3444 14.1533 22.98 14.8998 22.787 15.6977C22.5967 16.4843 22.5798 17.3028 22.7375 18.0965C22.8951 18.8903 23.2237 19.6403 23.7002 20.2946L34.3711 34.9709C37.7686 32.2407 41.999 30.7548 46.3588 30.7603Z" fill="#E6E6E6"/>
</g>
<defs>
<clipPath id="clip0_2_50438">
<rect width="224" height="180" fill="white"/>
</clipPath>
</defs>
</svg>
