<svg width="314" height="226" viewBox="0 0 314 226" fill="none" xmlns="http://www.w3.org/2000/svg">
<path d="M105.881 39.8649H8.15947C4.43277 39.8649 1.3996 36.8231 1.3996 33.0859C1.3996 29.3487 4.43277 26.307 8.15947 26.307H105.881C109.608 26.307 112.641 29.3487 112.641 33.0859C112.641 36.8231 109.608 39.8649 105.881 39.8649ZM8.15947 27.145C4.89234 27.145 2.23518 29.8096 2.23518 33.0859C2.23518 36.3623 4.89234 39.0269 8.15947 39.0269H105.881C109.148 39.0269 111.805 36.3623 111.805 33.0859C111.805 29.8096 109.148 27.145 105.881 27.145H8.15947Z" fill="#E2E3E4"/>
<path d="M105.881 119.197H8.15947C4.54557 119.197 1.60849 116.251 1.60849 112.627C1.60849 109.003 4.54557 106.058 8.15947 106.058H105.881C109.495 106.058 112.432 109.003 112.432 112.627C112.432 116.251 109.495 119.197 105.881 119.197Z" fill="#FBBF23"/>
<path d="M73.8573 13.1389H6.55098C2.93708 13.1389 0 10.1935 0 6.56943C0 2.94535 2.93708 0 6.55098 0H73.8573C77.4712 0 80.4083 2.94535 80.4083 6.56943C80.4083 10.1935 77.4712 13.1389 73.8573 13.1389Z" fill="#E2E3E4"/>
<path d="M105.881 66.3772H8.15947C4.43277 66.3772 1.3996 63.3355 1.3996 59.5983C1.3996 55.8611 4.43277 52.8194 8.15947 52.8194H105.881C109.608 52.8194 112.641 55.8611 112.641 59.5983C112.641 63.3355 109.608 66.3772 105.881 66.3772ZM8.15947 53.6573C4.89234 53.6573 2.23518 56.3219 2.23518 59.5983C2.23518 62.8746 4.89234 65.5392 8.15947 65.5392H105.881C109.148 65.5392 111.805 62.8746 111.805 59.5983C111.805 56.3219 109.148 53.6573 105.881 53.6573H8.15947Z" fill="#E2E3E4"/>
<path d="M105.881 92.8937H8.15947C4.43277 92.8937 1.3996 89.852 1.3996 86.1148C1.3996 82.3776 4.43277 79.3359 8.15947 79.3359H105.881C109.608 79.3359 112.641 82.3776 112.641 86.1148C112.641 89.852 109.608 92.8937 105.881 92.8937ZM8.15947 80.1738C4.89234 80.1738 2.23518 82.8385 2.23518 86.1148C2.23518 89.3911 4.89234 92.0558 8.15947 92.0558H105.881C109.148 92.0558 111.805 89.3911 111.805 86.1148C111.805 82.8385 109.148 80.1738 105.881 80.1738H8.15947Z" fill="#E2E3E4"/>
<path d="M4.80042 21.4386H30.4111C31.021 21.4386 31.5182 21.933 31.5182 22.5489C31.5182 23.1606 31.021 23.6592 30.4111 23.6592H4.80042C4.19044 23.6592 3.69327 23.1648 3.69327 22.5489C3.69327 21.9372 4.19044 21.4386 4.80042 21.4386Z" fill="#E2E3E4"/>
<path d="M4.80042 48.5794H30.4111C31.021 48.5794 31.5182 49.0738 31.5182 49.6855C31.5182 50.2972 31.021 50.7958 30.4111 50.7958H4.80042C4.19044 50.7958 3.69327 50.3014 3.69327 49.6897C3.69327 49.078 4.19044 48.5794 4.80042 48.5794Z" fill="#E2E3E4"/>
<path d="M4.80042 75.7244H30.4111C31.021 75.7244 31.5182 76.2188 31.5182 76.8346C31.5182 77.4463 31.021 77.9407 30.4111 77.9407H4.80042C4.19044 77.9407 3.69327 77.4463 3.69327 76.8305C3.69327 76.2188 4.19044 75.7244 4.80042 75.7244Z" fill="#E2E3E4"/>
<path d="M186.786 55.4128L177.445 58.4964V45.0098H185.922L186.786 55.4128Z" fill="#9F616A"/>
<path d="M178.602 48.7428C183.743 48.7428 187.91 44.5635 187.91 39.4082C187.91 34.2528 183.743 30.0736 178.602 30.0736C173.461 30.0736 169.294 34.2528 169.294 39.4082C169.294 44.5635 173.461 48.7428 178.602 48.7428Z" fill="#9F616A"/>
<path d="M181.159 38.4823C179.6 38.4362 178.577 36.8567 177.971 35.4154C177.365 33.9742 176.743 32.3192 175.297 31.7243C174.115 31.2383 172.03 34.5272 171.098 33.6516C170.125 32.7382 171.073 28.0499 172.105 27.2078C173.137 26.3657 174.549 26.2023 175.878 26.1394C179.12 25.9886 182.383 26.2526 185.562 26.9187C187.53 27.3293 189.552 27.9494 190.973 29.3739C192.769 31.1838 193.229 33.9113 193.358 36.4628C193.492 39.073 193.342 41.8047 192.076 44.0881C190.81 46.3714 188.161 48.0557 185.621 47.4733C185.366 46.0907 185.625 44.6704 185.725 43.2627C185.821 41.8591 185.721 40.3425 184.865 39.2238C184.012 38.1052 182.182 37.6611 181.188 38.654" fill="#2F2E43"/>
<path d="M192.611 41.7167C193.542 41.0338 194.658 40.4598 195.802 40.6022C197.039 40.7531 198.088 41.7754 198.405 42.9862C198.723 44.197 198.368 45.5293 197.599 46.5181C196.834 47.5068 195.694 48.1604 194.491 48.4872C193.793 48.6758 193.028 48.7554 192.364 48.4705C191.386 48.0473 190.856 46.7946 191.24 45.7975" fill="#2F2E43"/>
<path d="M156.99 129.545C156.367 132.612 157.508 135.415 159.53 135.804C161.552 136.194 163.695 134.02 164.313 130.953C164.577 129.729 164.535 128.464 164.192 127.258L171.892 79.1809L162.262 77.3625L158.544 126.172C157.754 127.161 157.224 128.318 156.99 129.549V129.545Z" fill="#9F616A"/>
<path d="M177.344 52.3082H170.773C166.127 53.0163 164.865 55.5008 163.808 60.0927C162.195 67.0978 160.136 76.4241 160.545 76.5623C161.201 76.7802 172.389 82.0592 178.092 80.8526L177.344 52.3082Z" fill="#E2E3E4"/>
<path d="M183.699 205.445H174.95V217.893H183.699V205.445Z" fill="#9F616A"/>
<path d="M166.432 225.426C165.513 225.426 164.694 225.405 164.075 225.346C161.752 225.133 159.534 223.411 158.418 222.405C157.917 221.953 157.758 221.232 158.017 220.612C158.205 220.168 158.577 219.833 159.041 219.703L165.182 217.943L175.126 211.215L175.239 211.416C175.28 211.491 176.258 213.255 176.584 214.445C176.709 214.897 176.676 215.274 176.488 215.568C176.358 215.769 176.175 215.886 176.028 215.953C176.208 216.142 176.772 216.527 178.51 216.804C181.046 217.206 181.581 214.571 181.602 214.462L181.618 214.374L181.694 214.323C182.901 213.544 183.645 213.188 183.9 213.263C184.058 213.309 184.326 213.393 185.048 220.57C185.119 220.796 185.625 222.447 185.282 224.027C184.911 225.744 177.424 225.154 175.924 225.02C175.882 225.024 170.275 225.426 166.436 225.426H166.432Z" fill="#2F2E43"/>
<path d="M208.61 195.666L201.187 200.308L207.756 210.87L215.179 206.228L208.61 195.666Z" fill="#9F616A"/>
<path d="M198.752 223.721C197.724 223.721 196.78 223.595 196.107 223.478C195.447 223.361 194.929 222.833 194.821 222.171C194.745 221.693 194.883 221.211 195.209 220.855L199.492 216.104L204.38 205.119L204.58 205.228C204.655 205.269 206.414 206.246 207.321 207.084C207.668 207.402 207.839 207.741 207.831 208.089C207.827 208.332 207.735 208.525 207.643 208.663C207.893 208.73 208.574 208.755 210.195 208.068C212.56 207.067 211.624 204.545 211.582 204.44L211.549 204.356L211.587 204.276C212.201 202.973 212.639 202.278 212.899 202.207C213.061 202.161 213.329 202.089 217.728 207.8C217.908 207.951 219.207 209.086 219.75 210.607C220.339 212.262 213.676 215.735 212.334 216.414C212.293 216.448 205.32 221.53 202.454 222.975C201.317 223.549 199.972 223.725 198.748 223.725L198.752 223.721Z" fill="#2F2E43"/>
<path d="M190.141 101.353H165.646L163.424 124.203L173.15 208.634H185.654L180.653 159.87L200.937 203.895L212.05 196.094L196.212 154.993C196.212 154.993 201.869 119.188 197.424 110.268C192.978 101.353 190.141 101.353 190.141 101.353Z" fill="#2F2E43"/>
<path d="M202.328 102.744H163.424L175.097 52.3082H192.047L202.328 102.744Z" fill="#E2E3E4"/>
<path d="M205.829 129.545C206.452 132.612 205.311 135.415 203.289 135.804C201.267 136.194 199.124 134.02 198.506 130.953C198.242 129.729 198.284 128.464 198.627 127.257L190.927 79.1809L200.557 77.3625L204.275 126.172C205.065 127.161 205.596 128.317 205.829 129.549V129.545Z" fill="#9F616A"/>
<path d="M185.475 52.3082H192.047C196.692 53.0163 197.954 55.5008 199.011 60.0927C200.624 67.0978 202.683 76.4241 202.274 76.5623C201.618 76.7802 190.43 82.0592 184.727 80.8526L185.475 52.3082Z" fill="#E2E3E4"/>
</svg>
