<svg width="284" height="139" viewBox="0 0 284 139" fill="none" xmlns="http://www.w3.org/2000/svg">
<path d="M151.778 51.6364H164.119V107C164.119 110.773 163.403 113.886 161.972 116.341C160.54 118.795 158.472 120.625 155.767 121.83C153.063 123.034 149.778 123.636 145.915 123.636C145.46 123.636 145.04 123.625 144.653 123.602C144.267 123.602 143.847 123.591 143.392 123.568V113.511C143.733 113.534 144.04 113.545 144.313 113.545C144.585 113.568 144.869 113.58 145.165 113.58C147.528 113.58 149.222 113 150.244 111.841C151.267 110.705 151.778 109.034 151.778 106.83V51.6364ZM157.915 44.2046C155.938 44.2046 154.244 43.5568 152.835 42.2614C151.449 40.9432 150.756 39.3636 150.756 37.5227C150.756 35.6591 151.449 34.0796 152.835 32.7841C154.244 31.4659 155.938 30.8068 157.915 30.8068C159.869 30.8068 161.54 31.4659 162.926 32.7841C164.335 34.0796 165.04 35.6591 165.04 37.5227C165.04 39.3636 164.335 40.9432 162.926 42.2614C161.54 43.5568 159.869 44.2046 157.915 44.2046Z" fill="#4B5563"/>
<path d="M210.185 81.9773V51.6364H222.526V104H210.56V94.6932H210.014C208.832 97.625 206.889 100.023 204.185 101.886C201.503 103.75 198.196 104.682 194.264 104.682C190.832 104.682 187.798 103.92 185.162 102.398C182.548 100.852 180.503 98.6136 179.026 95.6818C177.548 92.7273 176.81 89.1591 176.81 84.9773V51.6364H189.151V83.0682C189.151 86.3864 190.06 89.0227 191.878 90.9773C193.696 92.9318 196.082 93.9091 199.037 93.9091C200.855 93.9091 202.616 93.4659 204.321 92.5796C206.026 91.6932 207.423 90.375 208.514 88.625C209.628 86.8523 210.185 84.6364 210.185 81.9773Z" fill="#4B5563"/>
<path d="M250.284 105.057C246.966 105.057 243.977 104.466 241.318 103.284C238.682 102.08 236.591 100.307 235.045 97.9659C233.523 95.625 232.761 92.7386 232.761 89.3068C232.761 86.3523 233.307 83.9091 234.398 81.9773C235.489 80.0455 236.977 78.5 238.864 77.3409C240.75 76.1818 242.875 75.3068 245.239 74.7159C247.625 74.1023 250.091 73.6591 252.636 73.3864C255.705 73.0682 258.193 72.7841 260.102 72.5341C262.011 72.2614 263.398 71.8523 264.261 71.3068C265.148 70.7386 265.591 69.8636 265.591 68.6818V68.4773C265.591 65.9091 264.83 63.9205 263.307 62.5114C261.784 61.1023 259.591 60.3977 256.727 60.3977C253.705 60.3977 251.307 61.0568 249.534 62.375C247.784 63.6932 246.602 65.25 245.989 67.0455L234.466 65.4091C235.375 62.2273 236.875 59.5682 238.966 57.4318C241.057 55.2727 243.614 53.6591 246.636 52.5909C249.659 51.5 253 50.9546 256.659 50.9546C259.182 50.9546 261.693 51.25 264.193 51.8409C266.693 52.4318 268.977 53.4091 271.045 54.7727C273.114 56.1136 274.773 57.9432 276.023 60.2614C277.295 62.5796 277.932 65.4773 277.932 68.9546V104H266.068V96.8068H265.659C264.909 98.2614 263.852 99.625 262.489 100.898C261.148 102.148 259.455 103.159 257.409 103.932C255.386 104.682 253.011 105.057 250.284 105.057ZM253.489 95.9886C255.966 95.9886 258.114 95.5 259.932 94.5227C261.75 93.5227 263.148 92.2046 264.125 90.5682C265.125 88.9318 265.625 87.1477 265.625 85.2159V79.0455C265.239 79.3636 264.58 79.6591 263.648 79.9318C262.739 80.2046 261.716 80.4432 260.58 80.6477C259.443 80.8523 258.318 81.0341 257.205 81.1932C256.091 81.3523 255.125 81.4886 254.307 81.6023C252.466 81.8523 250.818 82.2614 249.364 82.8296C247.909 83.3977 246.761 84.1932 245.92 85.2159C245.08 86.2159 244.659 87.5114 244.659 89.1023C244.659 91.375 245.489 93.0909 247.148 94.25C248.807 95.4091 250.92 95.9886 253.489 95.9886Z" fill="#4B5563"/>
<path d="M0.913128 20.1052C0.635644 19.1616 1.74416 18.4263 2.50555 19.049L124.395 118.726C125.123 119.321 124.702 120.5 123.762 120.5H31.1839C30.7402 120.5 30.3496 120.208 30.2245 119.782L0.913128 20.1052Z" fill="#FBBF24"/>
</svg>
